<svg width="46" height="35" viewBox="0 0 46 35" fill="none" xmlns="http://www.w3.org/2000/svg">
<path d="M43.4122 3.44973C40.2038 3.43565 36.9954 3.44621 33.7837 3.44621C26.1296 3.44621 18.4756 3.44621 10.7234 3.44621C10.4733 1.1503 8.96881 0.68548 7.11952 0.576319C5.66241 0.488286 4.21881 0.185468 2.76508 0.0199655C1.34515 -0.142015 0.229495 0.696047 0.0401718 2.0095C-0.193102 3.6117 0.597998 4.71036 2.19373 4.94277C3.47504 5.1294 4.75974 5.31955 6.04782 5.42519C7.05529 5.5097 7.58607 5.92169 7.9512 6.98513C9.7802 12.334 11.7377 17.6336 13.5971 22.9719C14.0907 24.391 14.9156 24.9756 16.3727 24.965C23.0734 24.9192 29.7707 24.9192 36.4714 24.9685C37.9083 24.9791 38.767 24.4579 39.3045 23.0494C41.3871 17.6125 43.5474 12.2073 45.6536 6.77739C46.5157 4.55895 45.7686 3.46029 43.4122 3.44973Z" fill="#4F2413"/>
<path d="M16.819 26.2186C14.6079 26.1517 12.9142 27.7891 12.8601 30.0568C12.8026 32.3985 14.3341 34.124 16.5316 34.1874C18.7393 34.2507 20.4533 32.5922 20.4939 30.3562C20.5311 27.9969 19.0097 26.2855 16.819 26.2186Z" fill="#4F2413"/>
<path d="M36.6371 26.2221C34.4328 26.2256 32.8202 27.9194 32.8236 30.2223C32.8269 32.5218 34.4463 34.1979 36.6608 34.1944C38.8616 34.1909 40.4878 32.4866 40.4777 30.1907C40.4709 27.8807 38.8616 26.2186 36.6371 26.2221Z" fill="#4F2413"/>
</svg>
