<?xml version="1.0" encoding="utf-8"?>
<!-- Generator: Adobe Illustrator 24.3.0, SVG Export Plug-In . SVG Version: 6.00 Build 0)  -->
<svg version="1.1" id="圖層_2" xmlns="http://www.w3.org/2000/svg" xmlns:xlink="http://www.w3.org/1999/xlink" x="0px" y="0px"
	 viewBox="0 0 280 75" style="enable-background:new 0 0 280 75;" xml:space="preserve">
<style type="text/css">
	.st0{fill:#CE3F25;}
	.st1{fill:#381709;}
</style>
<g>
	<path class="st0" d="M267.79,36.53h-96.91v2.21h96.91V36.53z"/>
	<path class="st0" d="M109.12,36.53H12.21v2.21h96.91V36.53z"/>
	<path class="st0" d="M267.79,32.1h-96.91v2.21h96.91V32.1z"/>
	<path class="st0" d="M109.12,32.1H12.21v2.21h96.91V32.1z"/>
	<g>
		<path class="st1" d="M28.02,60.32v1.48c-0.47,0.34-0.99,0.63-1.56,0.86c-0.57,0.23-1.16,0.42-1.75,0.55
			c-0.59,0.14-1.17,0.24-1.74,0.3c-0.57,0.06-1.09,0.08-1.55,0.08c-1.3,0-2.51-0.19-3.64-0.58c-1.12-0.38-2.1-0.92-2.92-1.62
			c-0.83-0.7-1.47-1.55-1.95-2.55c-0.47-1-0.7-2.1-0.7-3.32c0-0.93,0.14-1.8,0.41-2.6c0.27-0.8,0.65-1.53,1.15-2.19
			c0.49-0.66,1.07-1.24,1.74-1.75c0.67-0.51,1.41-0.94,2.21-1.29c0.8-0.35,1.65-0.61,2.54-0.79c0.9-0.18,1.82-0.27,2.75-0.27
			c0.3,0,0.64,0.01,1.03,0.03c0.38,0.02,0.79,0.06,1.23,0.11c0.44,0.05,0.89,0.11,1.35,0.19c0.47,0.08,0.94,0.18,1.42,0.3
			l-0.53,2.19l-0.27,0.11c-0.92-0.36-1.79-0.61-2.58-0.74c-0.8-0.14-1.5-0.2-2.09-0.2c-1.01,0-1.94,0.16-2.79,0.49
			c-0.85,0.33-1.59,0.78-2.2,1.35c-0.61,0.57-1.09,1.25-1.43,2.02c-0.34,0.78-0.51,1.62-0.51,2.51c0,0.88,0.16,1.71,0.48,2.5
			c0.32,0.79,0.79,1.48,1.41,2.08c0.62,0.6,1.37,1.07,2.27,1.43c0.9,0.35,1.93,0.53,3.09,0.53c0.73,0,1.54-0.09,2.42-0.26
			C26.18,61.08,27.09,60.77,28.02,60.32z M37.36,63.59c-1.11,0-2.09-0.16-2.94-0.48c-0.85-0.31-1.56-0.74-2.14-1.28
			c-0.57-0.54-1.01-1.16-1.31-1.86c-0.3-0.7-0.45-1.45-0.45-2.24c0-0.91,0.19-1.76,0.57-2.55c0.38-0.79,0.92-1.48,1.6-2.07
			c0.69-0.59,1.51-1.06,2.46-1.4c0.95-0.34,1.99-0.51,3.12-0.51c1.11,0,2.09,0.16,2.94,0.48c0.85,0.31,1.57,0.74,2.14,1.28
			c0.58,0.54,1.02,1.17,1.31,1.88c0.29,0.71,0.44,1.46,0.44,2.25c0,0.92-0.19,1.77-0.58,2.56c-0.39,0.79-0.92,1.48-1.61,2.07
			c-0.69,0.59-1.52,1.05-2.46,1.38C39.53,63.42,38.49,63.59,37.36,63.59z M37.92,61.64c0.57,0,1.09-0.1,1.56-0.3
			c0.47-0.2,0.87-0.48,1.21-0.84c0.34-0.36,0.6-0.78,0.79-1.28c0.19-0.5,0.28-1.04,0.28-1.64c0-0.59-0.09-1.15-0.27-1.68
			c-0.18-0.54-0.45-1.01-0.79-1.42c-0.35-0.41-0.77-0.74-1.27-0.98c-0.5-0.24-1.06-0.36-1.69-0.36c-0.58,0-1.1,0.1-1.57,0.3
			c-0.47,0.2-0.87,0.48-1.21,0.84c-0.33,0.36-0.59,0.79-0.78,1.29c-0.19,0.5-0.28,1.05-0.28,1.64c0,0.59,0.09,1.16,0.27,1.69
			c0.18,0.53,0.45,1,0.79,1.41c0.35,0.41,0.77,0.73,1.27,0.96C36.72,61.52,37.29,61.64,37.92,61.64z M49.92,63.36v-10h-2.84
			L47.33,52l2.61-0.58V50.9c0-0.8,0.14-1.55,0.43-2.25c0.28-0.7,0.69-1.32,1.23-1.85c0.54-0.53,1.2-0.95,1.99-1.26
			c0.79-0.31,1.69-0.46,2.7-0.46c0.39,0,0.8,0.02,1.23,0.07c0.43,0.05,0.84,0.13,1.24,0.23l-0.55,1.95l-0.27,0.12
			c-0.27-0.13-0.57-0.23-0.9-0.3c-0.32-0.08-0.66-0.12-1.01-0.12c-0.52,0-0.96,0.09-1.32,0.26c-0.36,0.17-0.66,0.41-0.89,0.72
			c-0.23,0.3-0.4,0.66-0.5,1.08c-0.11,0.42-0.16,0.87-0.16,1.36v0.97h4.69l-0.57,1.95h-4.12v10H49.92z M62.14,63.36v-10h-2.84
			L59.55,52l2.61-0.58V50.9c0-0.8,0.14-1.55,0.43-2.25c0.28-0.7,0.69-1.32,1.23-1.85c0.54-0.53,1.2-0.95,1.99-1.26
			c0.79-0.31,1.69-0.46,2.7-0.46c0.39,0,0.8,0.02,1.23,0.07c0.43,0.05,0.84,0.13,1.24,0.23l-0.55,1.95l-0.27,0.12
			c-0.28-0.13-0.58-0.23-0.9-0.3c-0.32-0.08-0.66-0.12-1.01-0.12c-0.52,0-0.96,0.09-1.32,0.26c-0.36,0.17-0.66,0.41-0.89,0.72
			c-0.23,0.3-0.4,0.66-0.5,1.08c-0.11,0.42-0.16,0.87-0.16,1.36v0.97h4.69l-0.57,1.95h-4.12v10H62.14z M83.75,60.91v1.36
			c-0.39,0.23-0.81,0.43-1.27,0.6c-0.45,0.16-0.92,0.3-1.4,0.41c-0.48,0.11-0.96,0.19-1.43,0.24c-0.47,0.05-0.92,0.07-1.35,0.07
			c-0.99,0-1.9-0.13-2.75-0.38c-0.85-0.26-1.58-0.63-2.21-1.13c-0.63-0.5-1.12-1.11-1.47-1.83c-0.35-0.73-0.53-1.56-0.53-2.5
			c0-1,0.2-1.9,0.6-2.71c0.4-0.81,0.93-1.5,1.6-2.07c0.67-0.57,1.45-1.01,2.33-1.32c0.88-0.31,1.81-0.46,2.76-0.46
			c0.8,0,1.54,0.11,2.23,0.33c0.69,0.22,1.28,0.55,1.78,0.99c0.5,0.44,0.89,0.98,1.18,1.63c0.28,0.65,0.43,1.41,0.43,2.28
			c0,0.21-0.01,0.43-0.03,0.67c-0.02,0.24-0.06,0.47-0.11,0.7h-9.42c0,0.61,0.13,1.14,0.38,1.61c0.25,0.46,0.61,0.85,1.07,1.16
			c0.46,0.31,1.02,0.55,1.66,0.71c0.65,0.16,1.36,0.24,2.14,0.24c0.22,0,0.48-0.01,0.78-0.02c0.3-0.02,0.61-0.05,0.95-0.09
			c0.34-0.04,0.69-0.1,1.04-0.18C83.07,61.14,83.41,61.04,83.75,60.91z M74.69,56.45h6.58c0-0.55-0.08-1.03-0.25-1.44
			c-0.16-0.41-0.39-0.76-0.67-1.04c-0.28-0.28-0.61-0.48-0.99-0.62c-0.37-0.14-0.78-0.21-1.22-0.21c-0.49,0-0.94,0.08-1.36,0.24
			c-0.42,0.17-0.78,0.4-1.09,0.7c-0.31,0.3-0.56,0.65-0.74,1.05C74.77,55.55,74.69,55.98,74.69,56.45z M99.49,60.91v1.36
			c-0.39,0.23-0.81,0.43-1.27,0.6c-0.45,0.16-0.92,0.3-1.4,0.41c-0.48,0.11-0.95,0.19-1.43,0.24c-0.48,0.05-0.93,0.07-1.35,0.07
			c-0.99,0-1.9-0.13-2.75-0.38c-0.85-0.26-1.58-0.63-2.21-1.13c-0.63-0.5-1.12-1.11-1.47-1.83c-0.36-0.73-0.53-1.56-0.53-2.5
			c0-1,0.2-1.9,0.6-2.71c0.4-0.81,0.93-1.5,1.6-2.07c0.67-0.57,1.45-1.01,2.33-1.32c0.88-0.31,1.8-0.46,2.76-0.46
			c0.8,0,1.54,0.11,2.23,0.33c0.69,0.22,1.28,0.55,1.78,0.99c0.5,0.44,0.89,0.98,1.18,1.63s0.43,1.41,0.43,2.28
			c0,0.21-0.01,0.43-0.03,0.67c-0.02,0.24-0.06,0.47-0.11,0.7h-9.43c0,0.61,0.13,1.14,0.38,1.61c0.25,0.46,0.61,0.85,1.07,1.16
			c0.46,0.31,1.02,0.55,1.66,0.71c0.65,0.16,1.37,0.24,2.14,0.24c0.22,0,0.48-0.01,0.78-0.02c0.3-0.02,0.62-0.05,0.95-0.09
			c0.34-0.04,0.68-0.1,1.04-0.18C98.8,61.14,99.15,61.04,99.49,60.91z M90.42,56.45H97c0-0.55-0.08-1.03-0.25-1.44
			c-0.16-0.41-0.39-0.76-0.67-1.04c-0.28-0.28-0.61-0.48-0.99-0.62s-0.79-0.21-1.22-0.21c-0.49,0-0.94,0.08-1.36,0.24
			c-0.41,0.17-0.78,0.4-1.09,0.7c-0.31,0.3-0.55,0.65-0.73,1.05C90.51,55.55,90.42,55.98,90.42,56.45z M109.48,63.36V51.42h2.61
			l0.45,2.04c0.31-0.24,0.66-0.49,1.05-0.76c0.39-0.26,0.8-0.51,1.24-0.73c0.44-0.22,0.9-0.41,1.37-0.55
			c0.48-0.15,0.95-0.22,1.43-0.22c0.43,0,0.84,0.06,1.24,0.18c0.4,0.12,0.77,0.28,1.1,0.48c0.34,0.2,0.64,0.44,0.89,0.72
			c0.26,0.28,0.46,0.59,0.6,0.93c0.35-0.25,0.71-0.51,1.09-0.78c0.38-0.27,0.79-0.52,1.23-0.75c0.43-0.23,0.89-0.41,1.37-0.56
			c0.48-0.15,1-0.22,1.55-0.22c0.65,0,1.25,0.11,1.77,0.33c0.52,0.22,0.97,0.52,1.34,0.9c0.37,0.38,0.65,0.83,0.85,1.34
			c0.2,0.51,0.3,1.07,0.3,1.67v7.94h-3.23v-7.63c0-0.76-0.23-1.36-0.68-1.8c-0.45-0.44-1.06-0.66-1.82-0.66
			c-0.32,0-0.62,0.04-0.91,0.12c-0.29,0.08-0.57,0.18-0.85,0.32c-0.28,0.14-0.55,0.31-0.83,0.5c-0.27,0.19-0.56,0.4-0.85,0.63
			c0.02,0.09,0.03,0.18,0.03,0.27c0,0.09,0,0.19,0,0.3v7.94h-3.22v-7.63c0-0.38-0.06-0.72-0.19-1.02c-0.12-0.3-0.3-0.56-0.52-0.78
			c-0.22-0.22-0.49-0.38-0.8-0.49c-0.31-0.11-0.65-0.17-1.03-0.17c-0.31,0-0.61,0.04-0.89,0.12c-0.29,0.08-0.57,0.18-0.83,0.32
			c-0.27,0.14-0.54,0.31-0.81,0.49c-0.27,0.19-0.55,0.39-0.83,0.62v8.53H109.48z M147.04,60.91v1.36c-0.39,0.23-0.81,0.43-1.26,0.6
			c-0.46,0.16-0.92,0.3-1.4,0.41c-0.48,0.11-0.96,0.19-1.43,0.24c-0.48,0.05-0.93,0.07-1.35,0.07c-0.99,0-1.9-0.13-2.75-0.38
			c-0.85-0.26-1.58-0.63-2.21-1.13c-0.62-0.5-1.12-1.11-1.47-1.83c-0.36-0.73-0.54-1.56-0.54-2.5c0-1,0.2-1.9,0.6-2.71
			c0.4-0.81,0.93-1.5,1.6-2.07c0.67-0.57,1.45-1.01,2.33-1.32c0.88-0.31,1.8-0.46,2.76-0.46c0.8,0,1.54,0.11,2.23,0.33
			c0.69,0.22,1.28,0.55,1.78,0.99c0.5,0.44,0.89,0.98,1.18,1.63c0.28,0.65,0.43,1.41,0.43,2.28c0,0.21-0.01,0.43-0.03,0.67
			c-0.02,0.24-0.06,0.47-0.11,0.7h-9.43c0,0.61,0.13,1.14,0.38,1.61c0.25,0.46,0.61,0.85,1.07,1.16c0.46,0.31,1.02,0.55,1.66,0.71
			c0.65,0.16,1.37,0.24,2.14,0.24c0.22,0,0.48-0.01,0.78-0.02s0.62-0.05,0.95-0.09c0.34-0.04,0.68-0.1,1.04-0.18
			C146.35,61.14,146.7,61.04,147.04,60.91z M137.97,56.45h6.58c0-0.55-0.08-1.03-0.25-1.44c-0.16-0.41-0.39-0.76-0.67-1.04
			c-0.29-0.28-0.62-0.48-0.99-0.62c-0.38-0.14-0.78-0.21-1.22-0.21c-0.49,0-0.94,0.08-1.36,0.24c-0.42,0.17-0.78,0.4-1.09,0.7
			c-0.31,0.3-0.55,0.65-0.73,1.05C138.06,55.55,137.97,55.98,137.97,56.45z M162.77,60.91v1.36c-0.39,0.23-0.81,0.43-1.26,0.6
			c-0.45,0.16-0.92,0.3-1.4,0.41c-0.48,0.11-0.96,0.19-1.43,0.24c-0.47,0.05-0.92,0.07-1.35,0.07c-0.99,0-1.9-0.13-2.75-0.38
			c-0.85-0.26-1.58-0.63-2.21-1.13c-0.63-0.5-1.12-1.11-1.47-1.83c-0.35-0.73-0.53-1.56-0.53-2.5c0-1,0.2-1.9,0.6-2.71
			c0.4-0.81,0.93-1.5,1.6-2.07c0.67-0.57,1.44-1.01,2.33-1.32c0.88-0.31,1.81-0.46,2.76-0.46c0.8,0,1.54,0.11,2.23,0.33
			c0.69,0.22,1.28,0.55,1.78,0.99s0.89,0.98,1.18,1.63c0.28,0.65,0.42,1.41,0.42,2.28c0,0.21-0.01,0.43-0.03,0.67
			c-0.02,0.24-0.06,0.47-0.11,0.7h-9.43c0,0.61,0.13,1.14,0.38,1.61c0.26,0.46,0.61,0.85,1.08,1.16c0.46,0.31,1.02,0.55,1.66,0.71
			c0.65,0.16,1.36,0.24,2.14,0.24c0.22,0,0.48-0.01,0.78-0.02c0.29-0.02,0.61-0.05,0.95-0.09c0.34-0.04,0.69-0.1,1.04-0.18
			C162.09,61.14,162.43,61.04,162.77,60.91z M153.7,56.45h6.58c0-0.55-0.08-1.03-0.25-1.44c-0.16-0.41-0.39-0.76-0.67-1.04
			c-0.28-0.28-0.61-0.48-0.99-0.62c-0.38-0.14-0.78-0.21-1.22-0.21c-0.49,0-0.94,0.08-1.36,0.24c-0.42,0.17-0.78,0.4-1.09,0.7
			c-0.31,0.3-0.56,0.65-0.74,1.05C153.79,55.55,153.7,55.98,153.7,56.45z M168.16,60.06v-6.7h-2.83l0.24-1.28
			c0.7-0.15,1.26-0.32,1.68-0.51c0.42-0.19,0.77-0.42,1.05-0.69s0.52-0.61,0.74-1c0.21-0.39,0.45-0.87,0.73-1.44h1.54v2.97h5.07
			l-0.57,1.95h-4.41v6.15c0,0.37,0.06,0.68,0.18,0.93c0.12,0.25,0.3,0.46,0.54,0.61c0.23,0.16,0.5,0.27,0.83,0.34
			c0.32,0.07,0.69,0.11,1.1,0.11c0.39,0,0.78-0.03,1.16-0.09c0.39-0.06,0.76-0.14,1.1-0.26v1.38c-0.6,0.34-1.25,0.6-1.94,0.78
			c-0.69,0.18-1.39,0.27-2.09,0.27c-1.34,0-2.36-0.31-3.07-0.92C168.52,62.05,168.16,61.18,168.16,60.06z M179.07,62.8l0.57-2.05
			l0.24-0.12c0.35,0.16,0.71,0.3,1.09,0.43c0.38,0.13,0.75,0.23,1.12,0.32c0.38,0.09,0.74,0.15,1.09,0.2c0.36,0.04,0.69,0.06,1,0.06
			c0.81,0,1.44-0.14,1.9-0.42c0.46-0.29,0.69-0.65,0.69-1.09c0-0.3-0.1-0.55-0.31-0.74c-0.21-0.2-0.49-0.36-0.83-0.5
			c-0.34-0.14-0.73-0.26-1.16-0.36c-0.44-0.1-0.88-0.22-1.34-0.33c-0.46-0.12-0.9-0.25-1.34-0.4s-0.82-0.34-1.17-0.57
			c-0.34-0.23-0.62-0.52-0.82-0.85c-0.21-0.33-0.31-0.74-0.31-1.23c0-0.55,0.14-1.06,0.41-1.55c0.28-0.48,0.68-0.89,1.2-1.24
			c0.52-0.35,1.15-0.63,1.89-0.83c0.74-0.2,1.57-0.3,2.5-0.3c0.23,0,0.5,0.01,0.8,0.02c0.31,0.02,0.63,0.04,0.96,0.07
			c0.33,0.03,0.67,0.08,1,0.13c0.34,0.05,0.65,0.12,0.95,0.2l-0.59,2.02l-0.29,0.15c-0.27-0.11-0.56-0.21-0.86-0.3
			c-0.31-0.08-0.61-0.15-0.92-0.19c-0.31-0.05-0.61-0.09-0.89-0.12c-0.29-0.02-0.54-0.04-0.76-0.04c-0.78,0-1.39,0.13-1.83,0.39
			c-0.44,0.26-0.66,0.62-0.66,1.06c0,0.31,0.11,0.56,0.32,0.76c0.21,0.2,0.49,0.37,0.83,0.51c0.34,0.14,0.74,0.26,1.18,0.36
			c0.45,0.1,0.9,0.21,1.35,0.33c0.46,0.12,0.91,0.25,1.35,0.4c0.44,0.15,0.84,0.34,1.18,0.57c0.34,0.23,0.62,0.52,0.83,0.86
			c0.21,0.34,0.32,0.76,0.32,1.25c0,0.56-0.14,1.08-0.43,1.56c-0.28,0.48-0.69,0.9-1.21,1.26c-0.52,0.35-1.15,0.63-1.89,0.84
			c-0.73,0.2-1.55,0.3-2.45,0.3c-0.74,0-1.52-0.07-2.35-0.2S179.82,63.06,179.07,62.8z M209.22,54.23c0.53,0.13,1.04,0.31,1.53,0.53
			c0.49,0.22,0.92,0.5,1.3,0.82c0.38,0.32,0.68,0.69,0.9,1.11c0.23,0.42,0.34,0.88,0.34,1.39c0,0.61-0.17,1.23-0.52,1.85
			c-0.35,0.62-0.87,1.19-1.55,1.69c-0.68,0.51-1.53,0.92-2.54,1.25c-1.01,0.32-2.18,0.48-3.5,0.48h-5.54V46.85h6.09
			c1.12,0,2.1,0.1,2.93,0.3c0.84,0.2,1.53,0.47,2.09,0.8c0.56,0.33,0.98,0.71,1.26,1.15c0.28,0.43,0.42,0.88,0.42,1.34
			c0,0.39-0.09,0.76-0.27,1.12c-0.18,0.36-0.41,0.7-0.7,1.02c-0.29,0.32-0.64,0.62-1.02,0.9C210.04,53.76,209.63,54.01,209.22,54.23
			z M202.93,55.75v5.63h2.56c0.79,0,1.46-0.09,2.01-0.26c0.56-0.18,1.01-0.4,1.35-0.69c0.35-0.28,0.6-0.6,0.75-0.96
			c0.16-0.35,0.24-0.72,0.24-1.08c0-0.46-0.11-0.85-0.32-1.18c-0.21-0.33-0.51-0.6-0.9-0.82c-0.39-0.22-0.85-0.38-1.4-0.48
			c-0.54-0.1-1.14-0.16-1.8-0.16H202.93z M202.93,53.82h4.34c0.56-0.33,1.01-0.72,1.35-1.16c0.34-0.44,0.51-0.94,0.51-1.48
			c0-0.72-0.34-1.29-1.01-1.71c-0.67-0.42-1.62-0.63-2.86-0.63h-2.34V53.82z M224.66,61.61c-0.23,0.17-0.51,0.36-0.83,0.59
			c-0.32,0.23-0.68,0.45-1.08,0.66c-0.4,0.21-0.83,0.38-1.29,0.52c-0.46,0.14-0.96,0.22-1.47,0.22c-0.52,0-1.01-0.08-1.46-0.24
			c-0.45-0.16-0.84-0.38-1.17-0.67c-0.33-0.29-0.6-0.64-0.79-1.04c-0.19-0.4-0.29-0.84-0.29-1.33c0-0.51,0.12-1.01,0.37-1.5
			c0.25-0.49,0.66-0.92,1.23-1.31c0.58-0.38,1.33-0.69,2.27-0.93c0.94-0.24,2.1-0.36,3.49-0.36h0.97v-0.92
			c0-0.33-0.07-0.63-0.2-0.89c-0.13-0.26-0.32-0.49-0.56-0.68c-0.24-0.19-0.53-0.33-0.86-0.43c-0.33-0.1-0.71-0.14-1.11-0.14
			c-0.32,0-0.66,0.03-1.02,0.09c-0.36,0.06-0.72,0.15-1.08,0.27c-0.36,0.11-0.7,0.24-1.04,0.4c-0.34,0.15-0.64,0.32-0.91,0.5
			l-0.23-0.11l-0.62-1.89c1.08-0.47,2.07-0.79,3-0.96c0.92-0.17,1.79-0.25,2.6-0.25c0.83,0,1.58,0.07,2.23,0.22
			c0.65,0.14,1.2,0.36,1.66,0.66c0.45,0.3,0.79,0.68,1.03,1.13c0.23,0.45,0.35,0.99,0.35,1.62v5.52c0,0.11,0.01,0.24,0.04,0.37
			c0.02,0.14,0.07,0.26,0.13,0.38c0.07,0.12,0.16,0.22,0.29,0.3c0.13,0.08,0.3,0.12,0.51,0.12c0.12,0,0.27-0.02,0.45-0.05
			c0.17-0.03,0.35-0.08,0.53-0.15v1.35c-0.48,0.28-0.96,0.5-1.43,0.66c-0.48,0.17-0.94,0.25-1.39,0.25c-0.36,0-0.66-0.06-0.92-0.17
			c-0.26-0.11-0.47-0.26-0.65-0.44c-0.18-0.18-0.33-0.4-0.45-0.63C224.84,62.11,224.74,61.86,224.66,61.61z M224.6,60.15v-2.61
			h-0.84c-0.92,0-1.67,0.05-2.23,0.16c-0.56,0.11-1,0.26-1.31,0.45c-0.31,0.19-0.52,0.41-0.62,0.66c-0.1,0.25-0.15,0.52-0.15,0.82
			c0,0.31,0.06,0.58,0.16,0.81c0.1,0.23,0.25,0.43,0.43,0.59c0.18,0.16,0.4,0.28,0.64,0.36c0.25,0.08,0.52,0.12,0.8,0.12
			c0.21,0,0.43-0.02,0.66-0.06c0.23-0.04,0.47-0.11,0.73-0.22c0.25-0.11,0.52-0.25,0.81-0.42C223.97,60.64,224.28,60.42,224.6,60.15
			z M239.77,64.19h-3.22c-0.2,0.1-0.42,0.21-0.64,0.34c-0.22,0.13-0.43,0.27-0.62,0.42c-0.19,0.15-0.35,0.32-0.47,0.51
			c-0.12,0.18-0.19,0.38-0.19,0.59c0,0.22,0.08,0.44,0.23,0.63c0.16,0.19,0.39,0.36,0.69,0.51c0.31,0.14,0.69,0.26,1.14,0.35
			c0.45,0.09,0.97,0.13,1.55,0.13c0.68,0,1.28-0.06,1.8-0.17c0.52-0.11,0.96-0.27,1.32-0.46c0.36-0.19,0.63-0.41,0.82-0.66
			c0.18-0.25,0.28-0.5,0.28-0.78c0-0.24-0.07-0.45-0.21-0.63c-0.14-0.18-0.33-0.32-0.58-0.44c-0.24-0.12-0.53-0.21-0.86-0.26
			C240.49,64.22,240.14,64.19,239.77,64.19z M234.58,63.96c-0.61-0.18-1.11-0.42-1.5-0.72c-0.39-0.3-0.58-0.65-0.58-1.05
			c0-0.25,0.08-0.48,0.23-0.71c0.16-0.22,0.36-0.44,0.62-0.64c0.25-0.2,0.54-0.4,0.86-0.58c0.32-0.18,0.64-0.36,0.97-0.54
			c-0.55-0.2-1.02-0.44-1.4-0.72c-0.39-0.28-0.7-0.58-0.95-0.91c-0.24-0.33-0.42-0.68-0.53-1.05c-0.11-0.37-0.17-0.74-0.17-1.11
			c0-0.72,0.18-1.38,0.55-1.96c0.37-0.58,0.85-1.08,1.44-1.49c0.6-0.42,1.28-0.73,2.05-0.96c0.77-0.22,1.56-0.33,2.38-0.33
			c0.61,0,1.22,0.06,1.81,0.19c0.6,0.13,1.1,0.3,1.5,0.52c0.28-0.14,0.66-0.25,1.14-0.34c0.47-0.1,0.96-0.14,1.46-0.14h2.26
			l-0.57,1.94h-2.86c0.05,0.05,0.13,0.13,0.24,0.26c0.11,0.13,0.21,0.3,0.31,0.49c0.1,0.19,0.18,0.42,0.26,0.67
			c0.08,0.25,0.11,0.52,0.11,0.8c0,0.63-0.18,1.22-0.53,1.77c-0.35,0.54-0.81,1.02-1.4,1.42c-0.58,0.4-1.25,0.72-2,0.95
			c-0.75,0.23-1.52,0.35-2.31,0.35c-0.17,0-0.34-0.01-0.51-0.02c-0.17-0.01-0.34-0.03-0.52-0.04c-0.14,0.08-0.29,0.16-0.45,0.25
			c-0.16,0.1-0.3,0.2-0.44,0.3c-0.13,0.11-0.25,0.23-0.34,0.36c-0.09,0.13-0.13,0.26-0.13,0.4c0,0.23,0.12,0.42,0.37,0.56
			c0.25,0.14,0.59,0.21,1.02,0.21h3.6c0.64,0,1.25,0.07,1.84,0.2c0.59,0.13,1.11,0.32,1.56,0.57c0.45,0.25,0.81,0.56,1.08,0.93
			c0.27,0.36,0.41,0.78,0.41,1.24c0,0.52-0.18,1.05-0.53,1.6c-0.35,0.54-0.87,1.04-1.55,1.49c-0.68,0.45-1.53,0.81-2.53,1.09
			c-1,0.28-2.16,0.42-3.46,0.42c-0.83,0-1.61-0.06-2.32-0.18c-0.71-0.12-1.34-0.3-1.87-0.53c-0.53-0.23-0.94-0.5-1.24-0.83
			c-0.3-0.33-0.45-0.69-0.45-1.1c0-0.36,0.11-0.7,0.33-1.01c0.23-0.31,0.5-0.59,0.81-0.84c0.32-0.26,0.65-0.48,1-0.67
			C234.02,64.26,234.32,64.1,234.58,63.96z M235.1,55.57c0,0.38,0.08,0.74,0.23,1.06c0.16,0.33,0.38,0.61,0.65,0.86
			c0.28,0.24,0.61,0.43,0.99,0.57c0.38,0.14,0.79,0.2,1.24,0.2c0.43,0,0.82-0.06,1.2-0.18c0.37-0.13,0.69-0.3,0.97-0.53
			c0.28-0.22,0.49-0.5,0.65-0.82c0.16-0.32,0.24-0.67,0.24-1.06c0-0.38-0.08-0.74-0.24-1.06c-0.16-0.32-0.37-0.6-0.65-0.84
			c-0.28-0.24-0.61-0.42-0.99-0.56c-0.38-0.14-0.8-0.2-1.25-0.2c-0.43,0-0.82,0.06-1.19,0.18c-0.37,0.12-0.69,0.29-0.97,0.51
			c-0.27,0.22-0.49,0.49-0.65,0.81C235.18,54.82,235.1,55.18,235.1,55.57z M260.38,60.91v1.36c-0.39,0.23-0.81,0.43-1.27,0.6
			c-0.45,0.16-0.92,0.3-1.4,0.41c-0.48,0.11-0.95,0.19-1.43,0.24c-0.48,0.05-0.93,0.07-1.35,0.07c-0.99,0-1.9-0.13-2.75-0.38
			c-0.85-0.26-1.58-0.63-2.21-1.13c-0.63-0.5-1.12-1.11-1.47-1.83c-0.36-0.73-0.53-1.56-0.53-2.5c0-1,0.2-1.9,0.6-2.71
			c0.4-0.81,0.93-1.5,1.6-2.07c0.67-0.57,1.45-1.01,2.33-1.32c0.88-0.31,1.8-0.46,2.76-0.46c0.8,0,1.54,0.11,2.23,0.33
			c0.69,0.22,1.28,0.55,1.78,0.99c0.5,0.44,0.89,0.98,1.18,1.63c0.29,0.65,0.43,1.41,0.43,2.28c0,0.21-0.01,0.43-0.04,0.67
			c-0.02,0.24-0.06,0.47-0.11,0.7h-9.43c0,0.61,0.13,1.14,0.38,1.61c0.25,0.46,0.61,0.85,1.07,1.16c0.46,0.31,1.02,0.55,1.66,0.71
			c0.65,0.16,1.36,0.24,2.14,0.24c0.23,0,0.49-0.01,0.78-0.02c0.3-0.02,0.62-0.05,0.96-0.09c0.34-0.04,0.68-0.1,1.04-0.18
			C259.69,61.14,260.04,61.04,260.38,60.91z M251.31,56.45h6.58c0-0.55-0.08-1.03-0.24-1.44c-0.16-0.41-0.39-0.76-0.67-1.04
			c-0.28-0.28-0.61-0.48-0.99-0.62c-0.38-0.14-0.79-0.21-1.22-0.21c-0.49,0-0.94,0.08-1.36,0.24c-0.41,0.17-0.78,0.4-1.09,0.7
			c-0.31,0.3-0.55,0.65-0.73,1.05C251.4,55.55,251.31,55.98,251.31,56.45z M264.57,63.36V45.31h3.22v18.05H264.57z"/>
	</g>
	<path class="st0" d="M161.42,22.57c0.2-0.63,0.31-1.3,0.32-1.99c0.1-0.63,0.68-5.14-2.63-9.14c-3.34-4.03-9.38-6.07-17.95-6.08
		c-0.12,0-0.24,0-0.36,0h-0.12l-0.14,0c-0.07,0-0.15,0-0.23,0c-1.69,0-3.33,0.1-4.89,0.29c-5.95,0.63-10.35,2.34-13.07,5.06
		c-1.31,1.31-2.26,2.88-2.82,4.66c-0.19,0.52-0.33,1.06-0.44,1.61l-0.06,0.34c-0.02,0.15-0.04,0.3-0.06,0.45l0,0.02
		c-0.39,2.88-0.18,4.2-0.06,4.66c-0.67,1.06-0.15,2.22-0.01,2.49c0,0.01,0,0.02,0.01,0.02c0,0.41,0.01,1.03,0.06,1.66
		c0.1,1.38,0.35,2.44,0.76,3.24c1.5,2.93,4.22,5.34,7.87,6.98c3.56,1.61,7.96,2.45,12.72,2.45c5.47,0,10.37-0.96,14.19-2.79
		c3.93-1.88,6.37-4.51,7.02-7.59c0.06-0.28,0.11-0.96,0.15-2.06c0.01-0.25,0.02-0.51,0.03-0.76
		C162.4,25.04,161.94,23.45,161.42,22.57z M133.59,11.59c0.12-0.22,0.39-0.31,0.61-0.19c0.22,0.12,0.31,0.39,0.2,0.61
		c-0.01,0.03-0.69,1.41,0.02,2.57c0.33,0.55,0.93,0.98,1.77,1.29c-0.55-0.3-0.88-0.67-0.88-1.06c0-1.05,2.29-1.9,5.1-1.9
		c2.82,0,5.11,0.85,5.11,1.9c0,0.39-0.32,0.76-0.87,1.06c0.84-0.31,1.43-0.74,1.77-1.29c0.72-1.17,0.03-2.55,0.02-2.56
		c-0.11-0.22-0.03-0.5,0.19-0.61c0.22-0.11,0.5-0.03,0.61,0.19c0.04,0.08,0.93,1.84-0.05,3.45c-0.94,1.54-3.22,2.32-6.78,2.32
		c-3.56,0-5.84-0.78-6.77-2.32C132.66,13.43,133.55,11.66,133.59,11.59z M153.8,35.04c-3.61,1.72-8.27,2.63-13.5,2.63
		c-9.24,0-16.4-3.19-19.16-8.55c-0.06-0.11-0.11-0.24-0.16-0.37c0.95,0.75,2.08,1.45,3.35,2.07c4.31,2.1,10.01,3.26,16.07,3.26
		c6.06,0,11.76-1.16,16.07-3.26c1.32-0.64,2.47-1.36,3.44-2.14C159.33,31.21,157.21,33.41,153.8,35.04z M125.22,28.61
		c0.92,0.14,1.89,0.28,2.35,0.42c0.08,0.04,0.17,0.08,0.28,0.13c0.6,0.42,4.12,2.27,5.75,2.37c0.13,0.02,0.82,0.13,1.68,0.13
		c0.52,0,1-0.04,1.43-0.12c0,0,0.01,0,0.02,0c0.07-0.01,0.14-0.03,0.21-0.05c0,0,3.17-0.58,4.66-0.28c1.15,0.23,4.48,0.45,7.38-0.4
		c0.79-0.16,1.49-0.39,1.89-0.7c0.68-0.53,2.17-1.31,3.68-1.95c1.84-0.71,3.57-1.05,4.74-1.05c-0.93,0.81-2.11,1.57-3.5,2.25
		c-4.09,2-9.54,3.09-15.36,3.09c-5.81,0-11.27-1.1-15.36-3.1c-0.5-0.24-0.98-0.5-1.42-0.77C124.06,28.59,124.63,28.58,125.22,28.61z
		 M160.1,21.52c-0.83,4.66-7.7,7.23-19.34,7.22c-0.84,0-8.42-0.05-14.33-1.73l-1.07-0.33c-0.43-0.14-0.85-0.3-1.23-0.45
		c-0.65-0.34-1.32-0.76-1.94-1.24c-1.29-1.1-1.59-2.33-1.65-2.98l-0.03-1.47v-0.08c0-0.56,0.03-2.21,0.06-2.5
		c0.14-1.22,0.52-2.37,1.11-3.43c-0.03,0.2-0.04,0.41-0.04,0.62c0,2.55,1.99,4.92,5.6,6.69c3.53,1.73,8.21,2.68,13.17,2.68
		c4.96,0,9.64-0.95,13.17-2.68c3.61-1.77,5.6-4.14,5.6-6.69c0-0.22-0.02-0.44-0.04-0.66c0.54,1.05,0.86,2.2,0.96,3.4
		c0.01,0.18,0.02,2.13,0.02,2.57C160.11,20.68,160.11,21.07,160.1,21.52z"/>
</g>
</svg>
