<svg width="256" height="64" viewBox="0 0 256 64" fill="none" xmlns="http://www.w3.org/2000/svg">
<g clip-path="url(#clip0_337_1113)">
<g clip-path="url(#clip1_337_1113)">
<g clip-path="url(#clip2_337_1113)">
<g clip-path="url(#clip3_337_1113)">
<g clip-path="url(#clip4_337_1113)">
<g clip-path="url(#clip5_337_1113)">
<g clip-path="url(#clip6_337_1113)">
<path d="M16.0247 54.8227V56.2999C15.5557 56.6445 15.0359 56.9307 14.4651 57.1585C13.8907 57.3893 13.309 57.5739 12.7201 57.7124C12.1275 57.8509 11.5459 57.9493 10.9751 58.0078C10.4007 58.0632 9.88265 58.0909 9.42094 58.0909C8.11946 58.0909 6.90704 57.8986 5.78369 57.5139C4.66034 57.1323 3.68605 56.5907 2.8608 55.889C2.03556 55.1843 1.38663 54.3349 0.914028 53.3409C0.445057 52.3439 0.210571 51.2375 0.210571 50.022C0.210571 49.0895 0.348718 48.2232 0.625011 47.4231C0.897668 46.623 1.27939 45.8936 1.77017 45.2351C2.25732 44.5796 2.83899 43.9964 3.51518 43.4856C4.18774 42.9747 4.92391 42.5439 5.72371 42.1931C6.5235 41.8453 7.37056 41.5807 8.26488 41.3991C9.16283 41.2206 10.0808 41.1314 11.0187 41.1314C11.3205 41.1314 11.6622 41.1421 12.0439 41.1637C12.4256 41.1852 12.8346 41.2206 13.2709 41.2698C13.7071 41.3191 14.1579 41.3837 14.6233 41.4637C15.0886 41.5406 15.5612 41.6391 16.0411 41.7591L15.5067 43.9472L15.2395 44.058C14.3161 43.6979 13.4545 43.4502 12.6547 43.3148C11.8512 43.1794 11.155 43.1117 10.5661 43.1117C9.55546 43.1117 8.62479 43.2748 7.77409 43.601C6.91977 43.9302 6.18723 44.3795 5.57647 44.9489C4.96208 45.5213 4.48402 46.1952 4.14229 46.9707C3.80056 47.7493 3.6297 48.5864 3.6297 49.4819C3.6297 50.3589 3.78966 51.1929 4.10958 51.9838C4.42949 52.7716 4.89846 53.464 5.51649 54.061C6.13451 54.6581 6.89068 55.1335 7.785 55.4874C8.68295 55.8413 9.7136 56.0183 10.8769 56.0183C11.6113 56.0183 12.4184 55.9306 13.2981 55.7552C14.1779 55.5828 15.0868 55.272 16.0247 54.8227ZM25.3605 58.0909C24.2481 58.0909 23.2683 57.9324 22.4213 57.6154C21.5742 57.3016 20.8617 56.8753 20.2836 56.3368C19.7092 55.8013 19.273 55.1797 18.9749 54.4719C18.6768 53.7672 18.5277 53.0194 18.5277 52.2285C18.5277 51.3206 18.7186 50.4697 19.1003 49.6758C19.482 48.8849 20.0164 48.194 20.7035 47.6031C21.3943 47.0123 22.214 46.546 23.1629 46.2044C24.1117 45.8629 25.1533 45.6921 26.2875 45.6921C27.4 45.6921 28.3816 45.8505 29.2322 46.1675C30.0829 46.4814 30.7973 46.9092 31.3753 47.4508C31.9534 47.9924 32.3914 48.6187 32.6895 49.3295C32.984 50.0373 33.1312 50.7867 33.1312 51.5776C33.1312 52.4947 32.9386 53.3486 32.5532 54.1395C32.1679 54.9335 31.6298 55.6228 30.9391 56.2075C30.2447 56.7953 29.4231 57.2554 28.4743 57.5878C27.5254 57.9232 26.4875 58.0909 25.3605 58.0909ZM25.9167 56.1383C26.4839 56.1383 27.0037 56.0398 27.4763 55.8429C27.9453 55.6428 28.3488 55.3643 28.6869 55.0074C29.025 54.6504 29.2868 54.2242 29.4722 53.7287C29.6576 53.2332 29.7503 52.6855 29.7503 52.0854C29.7503 51.4976 29.6594 50.9375 29.4776 50.4051C29.2959 49.8696 29.0323 49.3973 28.6869 48.988C28.3416 48.5787 27.9199 48.2525 27.4218 48.0093C26.9237 47.7662 26.3603 47.6447 25.7313 47.6447C25.1533 47.6447 24.6298 47.7462 24.1608 47.9493C23.6882 48.1494 23.2865 48.4309 22.9557 48.7941C22.6212 49.1541 22.3613 49.5834 22.1759 50.082C21.9905 50.5836 21.8978 51.1298 21.8978 51.7207C21.8978 52.3146 21.9886 52.8793 22.1704 53.4148C22.3522 53.9472 22.6158 54.4165 22.9611 54.8227C23.3065 55.2289 23.7282 55.5505 24.2263 55.7875C24.7243 56.0214 25.2878 56.1383 25.9167 56.1383ZM37.9246 57.8647V47.8662H35.0889L35.3289 46.4953L37.9355 45.9182V45.4012C37.9355 44.6042 38.0791 43.8549 38.3663 43.1532C38.6498 42.4485 39.0588 41.8315 39.5932 41.3021C40.1313 40.7728 40.7947 40.3543 41.5836 40.0466C42.3762 39.7388 43.2777 39.585 44.2884 39.585C44.6774 39.585 45.0882 39.6096 45.5208 39.6588C45.9498 39.7081 46.3642 39.785 46.7641 39.8896L46.2188 41.8376L45.9516 41.953C45.679 41.8238 45.379 41.7222 45.0518 41.6484C44.7283 41.5714 44.3902 41.533 44.0376 41.533C43.5213 41.533 43.0814 41.6207 42.7179 41.7961C42.3543 41.9684 42.0562 42.2069 41.8236 42.5116C41.5945 42.8132 41.4273 43.1732 41.3219 43.5917C41.2128 44.0072 41.1583 44.4596 41.1583 44.9489V45.9182H45.848L45.2754 47.8662H41.1583V57.8647H37.9246ZM50.1451 57.8647V47.8662H47.3094L47.5494 46.4953L50.156 45.9182V45.4012C50.156 44.6042 50.2996 43.8549 50.5868 43.1532C50.8704 42.4485 51.2793 41.8315 51.8137 41.3021C52.3518 40.7728 53.0153 40.3543 53.8041 40.0466C54.5967 39.7388 55.4983 39.585 56.5089 39.585C56.8979 39.585 57.3087 39.6096 57.7413 39.6588C58.1703 39.7081 58.5847 39.785 58.9846 39.8896L58.4393 41.8376L58.1721 41.953C57.8958 41.8238 57.5959 41.7222 57.2724 41.6484C56.9488 41.5714 56.6107 41.533 56.2581 41.533C55.7418 41.533 55.3019 41.6207 54.9384 41.7961C54.5749 41.9684 54.2768 42.2069 54.0441 42.5116C53.8151 42.8132 53.6478 43.1732 53.5424 43.5917C53.4333 44.0072 53.3788 44.4596 53.3788 44.9489V45.9182H58.0685L57.4959 47.8662H53.3788V57.8647H50.1451ZM71.7505 55.409V56.7707C71.3615 57.0046 70.9398 57.2046 70.4853 57.3708C70.0345 57.5339 69.5692 57.6708 69.0893 57.7816C68.6095 57.8893 68.1314 57.9678 67.6552 58.017C67.1825 58.0663 66.7336 58.0909 66.3082 58.0909C65.323 58.0909 64.4051 57.9632 63.5544 57.7078C62.7073 57.4523 61.9712 57.0769 61.3459 56.5814C60.7206 56.086 60.2298 55.4751 59.8735 54.7488C59.5209 54.0226 59.3446 53.1901 59.3446 52.2515C59.3446 51.2514 59.5445 50.3466 59.9444 49.5373C60.3407 48.7248 60.8751 48.0355 61.5476 47.4693C62.2165 46.8999 62.9927 46.4614 63.8761 46.1537C64.7595 45.8459 65.6811 45.6921 66.6409 45.6921C67.437 45.6921 68.1805 45.8028 68.8712 46.0244C69.5583 46.246 70.1527 46.5753 70.6544 47.0123C71.1561 47.4493 71.5487 47.994 71.8323 48.6464C72.1158 49.2988 72.2576 50.0574 72.2576 50.9221C72.2576 51.1314 72.2467 51.3545 72.2249 51.5914C72.2031 51.8284 72.1649 52.0607 72.1104 52.2885H62.6873C62.6873 52.8947 62.8128 53.4317 63.0636 53.8995C63.3181 54.3642 63.6762 54.7519 64.1379 55.0627C64.5996 55.3766 65.154 55.6136 65.8011 55.7736C66.4482 55.9367 67.1626 56.0183 67.9442 56.0183C68.1659 56.0183 68.4259 56.0106 68.724 55.9952C69.0221 55.9798 69.3384 55.949 69.6728 55.9029C70.0109 55.8598 70.3581 55.7982 70.7144 55.7182C71.067 55.6382 71.4124 55.5351 71.7505 55.409ZM62.6873 50.9544H69.2638C69.2638 50.4066 69.1802 49.9266 69.013 49.5142C68.8494 49.1018 68.6258 48.7556 68.3423 48.4756C68.0587 48.1986 67.7279 47.9909 67.3498 47.8524C66.9753 47.7139 66.57 47.6447 66.1337 47.6447C65.6466 47.6447 65.194 47.7262 64.7759 47.8893C64.3578 48.0555 63.9943 48.2878 63.6853 48.5864C63.3726 48.8818 63.1272 49.2326 62.9491 49.6388C62.7746 50.045 62.6873 50.4836 62.6873 50.9544ZM87.4883 55.409V56.7707C87.0956 57.0046 86.6739 57.2046 86.2231 57.3708C85.7687 57.5339 85.3015 57.6708 84.8217 57.7816C84.3454 57.8893 83.8692 57.9678 83.3929 58.017C82.9167 58.0663 82.4659 58.0909 82.0406 58.0909C81.0554 58.0909 80.1392 57.9632 79.2922 57.7078C78.4451 57.4523 77.7089 57.0769 77.0836 56.5814C76.4584 56.086 75.9676 55.4751 75.6113 54.7488C75.255 54.0226 75.0769 53.1901 75.0769 52.2515C75.0769 51.2514 75.2768 50.3466 75.6767 49.5373C76.0766 48.7248 76.611 48.0355 77.28 47.4693C77.9525 46.8999 78.7305 46.4614 79.6139 46.1537C80.4937 45.8459 81.4135 45.6921 82.3732 45.6921C83.173 45.6921 83.9165 45.8028 84.6035 46.0244C85.2906 46.246 85.885 46.5753 86.3867 47.0123C86.8884 47.4493 87.281 47.994 87.5646 48.6464C87.8482 49.2988 87.99 50.0574 87.99 50.9221C87.99 51.1314 87.979 51.3545 87.9572 51.5914C87.9354 51.8284 87.8991 52.0607 87.8482 52.2885H78.4197C78.4197 52.8947 78.5469 53.4317 78.8014 53.8995C79.0522 54.3642 79.4085 54.7519 79.8702 55.0627C80.3319 55.3766 80.8863 55.6136 81.5334 55.7736C82.1842 55.9367 82.8985 56.0183 83.6765 56.0183C83.8983 56.0183 84.1582 56.0106 84.4563 55.9952C84.7544 55.9798 85.0725 55.949 85.4106 55.9029C85.7487 55.8598 86.0941 55.7982 86.4467 55.7182C86.803 55.6382 87.1502 55.5351 87.4883 55.409ZM78.4197 50.9544H84.9962C84.9962 50.4066 84.9144 49.9266 84.7508 49.5142C84.5872 49.1018 84.3636 48.7556 84.08 48.4756C83.7965 48.1986 83.4657 47.9909 83.0876 47.8524C82.7095 47.7139 82.3023 47.6447 81.8661 47.6447C81.3789 47.6447 80.9263 47.7262 80.5082 47.8893C80.0938 48.0555 79.7303 48.2878 79.4176 48.5864C79.1086 48.8818 78.865 49.2326 78.6869 49.6388C78.5087 50.045 78.4197 50.4836 78.4197 50.9544ZM97.4839 57.8647V45.9182H100.09L100.543 47.9586C100.856 47.7185 101.205 47.4646 101.59 47.1969C101.975 46.9323 102.388 46.6891 102.828 46.4676C103.268 46.2429 103.724 46.0583 104.197 45.9136C104.673 45.7659 105.151 45.6921 105.631 45.6921C106.056 45.6921 106.469 45.7505 106.869 45.8675C107.269 45.9844 107.636 46.1444 107.97 46.3475C108.308 46.5507 108.607 46.7922 108.865 47.0723C109.123 47.3554 109.323 47.6662 109.464 48.0047C109.81 47.7555 110.173 47.4939 110.555 47.22C110.937 46.9461 111.346 46.6968 111.782 46.4722C112.215 46.2445 112.673 46.0583 113.156 45.9136C113.64 45.7659 114.158 45.6921 114.71 45.6921C115.365 45.6921 115.956 45.8013 116.483 46.0198C117.006 46.2383 117.452 46.5368 117.819 46.9153C118.186 47.2938 118.469 47.7416 118.669 48.2586C118.869 48.7725 118.969 49.3295 118.969 49.9296V57.8647H115.736V50.2343C115.736 49.4773 115.508 48.8787 115.054 48.4386C114.603 47.9986 113.996 47.7785 113.233 47.7785C112.913 47.7785 112.609 47.8185 112.322 47.8986C112.031 47.9755 111.749 48.0832 111.477 48.2217C111.2 48.3632 110.924 48.531 110.648 48.7248C110.375 48.9187 110.092 49.1295 109.797 49.3572C109.815 49.4465 109.824 49.5357 109.824 49.625C109.824 49.7173 109.824 49.8189 109.824 49.9296V57.8647H106.602V50.2343C106.602 49.8589 106.54 49.5188 106.416 49.2141C106.293 48.9095 106.12 48.651 105.898 48.4386C105.676 48.2232 105.409 48.0601 105.096 47.9493C104.787 47.8355 104.446 47.7785 104.071 47.7785C103.762 47.7785 103.466 47.8185 103.182 47.8986C102.895 47.9755 102.617 48.0832 102.348 48.2217C102.079 48.3632 101.808 48.5279 101.536 48.7156C101.267 48.9033 100.988 49.1095 100.701 49.3342V57.8647H97.4839ZM135.04 55.409V56.7707C134.647 57.0046 134.225 57.2046 133.775 57.3708C133.32 57.5339 132.853 57.6708 132.373 57.7816C131.893 57.8893 131.417 57.9678 130.944 58.017C130.468 58.0663 130.017 58.0909 129.592 58.0909C128.607 58.0909 127.691 57.9632 126.844 57.7078C125.997 57.4523 125.26 57.0769 124.635 56.5814C124.01 56.086 123.519 55.4751 123.163 54.7488C122.807 54.0226 122.628 53.1901 122.628 52.2515C122.628 51.2514 122.828 50.3466 123.228 49.5373C123.628 48.7248 124.163 48.0355 124.831 47.4693C125.504 46.8999 126.282 46.4614 127.165 46.1537C128.045 45.8459 128.965 45.6921 129.925 45.6921C130.724 45.6921 131.468 45.8028 132.155 46.0244C132.842 46.246 133.437 46.5753 133.938 47.0123C134.44 47.4493 134.833 47.994 135.116 48.6464C135.4 49.2988 135.541 50.0574 135.541 50.9221C135.541 51.1314 135.531 51.3545 135.509 51.5914C135.487 51.8284 135.451 52.0607 135.4 52.2885H125.971C125.971 52.8947 126.098 53.4317 126.353 53.8995C126.604 54.3642 126.96 54.7519 127.422 55.0627C127.883 55.3766 128.438 55.6136 129.085 55.7736C129.736 55.9367 130.45 56.0183 131.228 56.0183C131.45 56.0183 131.71 56.0106 132.008 55.9952C132.306 55.9798 132.624 55.949 132.962 55.9029C133.3 55.8598 133.646 55.7982 133.998 55.7182C134.354 55.6382 134.702 55.5351 135.04 55.409ZM125.971 50.9544H132.548C132.548 50.4066 132.466 49.9266 132.302 49.5142C132.139 49.1018 131.915 48.7556 131.632 48.4756C131.344 48.1986 131.014 47.9909 130.639 47.8524C130.261 47.7139 129.854 47.6447 129.418 47.6447C128.93 47.6447 128.478 47.7262 128.06 47.8893C127.645 48.0555 127.282 48.2878 126.969 48.5864C126.66 48.8818 126.416 49.2326 126.238 49.6388C126.06 50.045 125.971 50.4836 125.971 50.9544ZM150.772 55.409V56.7707C150.383 57.0046 149.961 57.2046 149.507 57.3708C149.056 57.5339 148.591 57.6708 148.111 57.7816C147.631 57.8893 147.153 57.9678 146.677 58.017C146.204 58.0663 145.755 58.0909 145.33 58.0909C144.345 58.0909 143.427 57.9632 142.576 57.7078C141.729 57.4523 140.993 57.0769 140.367 56.5814C139.742 56.086 139.251 55.4751 138.895 54.7488C138.543 54.0226 138.366 53.1901 138.366 52.2515C138.366 51.2514 138.566 50.3466 138.966 49.5373C139.362 48.7248 139.897 48.0355 140.569 47.4693C141.238 46.8999 142.014 46.4614 142.898 46.1537C143.781 45.8459 144.703 45.6921 145.662 45.6921C146.459 45.6921 147.202 45.8028 147.893 46.0244C148.58 46.246 149.174 46.5753 149.676 47.0123C150.178 47.4493 150.57 47.994 150.854 48.6464C151.137 49.2988 151.279 50.0574 151.279 50.9221C151.279 51.1314 151.268 51.3545 151.247 51.5914C151.225 51.8284 151.187 52.0607 151.132 52.2885H141.704C141.704 52.8947 141.831 53.4317 142.085 53.8995C142.34 54.3642 142.698 54.7519 143.159 55.0627C143.621 55.3766 144.176 55.6136 144.823 55.7736C145.47 55.9367 146.184 56.0183 146.966 56.0183C147.188 56.0183 147.447 56.0106 147.746 55.9952C148.04 55.9798 148.356 55.949 148.694 55.9029C149.033 55.8598 149.38 55.7982 149.736 55.7182C150.089 55.6382 150.434 55.5351 150.772 55.409ZM141.704 50.9544H148.285C148.285 50.4066 148.202 49.9266 148.035 49.5142C147.871 49.1018 147.647 48.7556 147.364 48.4756C147.08 48.1986 146.749 47.9909 146.371 47.8524C145.993 47.7139 145.588 47.6447 145.155 47.6447C144.668 47.6447 144.216 47.7262 143.798 47.8893C143.379 48.0555 143.016 48.2878 142.707 48.5864C142.394 48.8818 142.149 49.2326 141.971 49.6388C141.793 50.045 141.704 50.4836 141.704 50.9544ZM156.165 54.5642V47.8662H153.33L153.57 46.583C154.268 46.4322 154.827 46.2629 155.249 46.0752C155.671 45.8875 156.022 45.6567 156.302 45.3828C156.582 45.1089 156.827 44.775 157.038 44.3811C157.245 43.9872 157.487 43.5086 157.763 42.9455H159.306V45.9182H164.378L163.805 47.8662H159.399V54.0195C159.399 54.3888 159.461 54.6996 159.584 54.952C159.708 55.2043 159.886 55.409 160.119 55.5659C160.348 55.7228 160.624 55.8367 160.948 55.9075C161.271 55.9813 161.638 56.0183 162.049 56.0183C162.438 56.0183 162.825 55.9875 163.211 55.926C163.6 55.8675 163.967 55.7813 164.312 55.6675V57.0431C163.709 57.3877 163.064 57.6478 162.376 57.8232C161.686 58.0017 160.989 58.0909 160.288 58.0909C158.95 58.0909 157.928 57.7832 157.223 57.1677C156.518 56.5491 156.165 55.6813 156.165 54.5642ZM167.066 57.3016L167.639 55.252L167.879 55.1274C168.224 55.2843 168.586 55.4274 168.964 55.5567C169.342 55.6828 169.716 55.789 170.087 55.8752C170.462 55.9613 170.825 56.0275 171.178 56.0737C171.534 56.1168 171.867 56.1383 172.176 56.1383C172.986 56.1383 173.619 55.9967 174.073 55.7136C174.531 55.4274 174.761 55.0627 174.761 54.6196C174.761 54.318 174.657 54.0703 174.45 53.8764C174.239 53.6795 173.963 53.5117 173.621 53.3733C173.279 53.2348 172.892 53.1132 172.459 53.0086C172.023 52.9039 171.576 52.7932 171.118 52.6762C170.663 52.5593 170.218 52.4254 169.782 52.2746C169.346 52.1238 168.957 51.933 168.615 51.7022C168.273 51.4683 167.999 51.1837 167.791 50.8482C167.584 50.5159 167.481 50.1051 167.481 49.6157C167.481 49.068 167.619 48.5525 167.895 48.0694C168.175 47.5893 168.575 47.1754 169.095 46.8276C169.615 46.4768 170.245 46.1998 170.987 45.9967C171.729 45.7936 172.561 45.6921 173.484 45.6921C173.714 45.6921 173.981 45.6998 174.286 45.7151C174.595 45.7305 174.915 45.7551 175.246 45.789C175.58 45.8228 175.915 45.8659 176.249 45.9182C176.587 45.9706 176.904 46.0383 177.198 46.1214L176.609 48.1386L176.32 48.2863C176.051 48.1724 175.764 48.074 175.459 47.9909C175.153 47.9078 174.848 47.8432 174.542 47.797C174.233 47.7478 173.935 47.7093 173.648 47.6816C173.361 47.657 173.106 47.6447 172.885 47.6447C172.103 47.6447 171.492 47.7755 171.052 48.037C170.612 48.3017 170.393 48.6556 170.393 49.0987C170.393 49.4065 170.5 49.6588 170.714 49.8558C170.925 50.0558 171.201 50.2251 171.543 50.3636C171.885 50.502 172.278 50.6221 172.721 50.7236C173.168 50.8252 173.619 50.9344 174.073 51.0514C174.531 51.1683 174.982 51.3022 175.426 51.453C175.869 51.6037 176.262 51.7945 176.604 52.0253C176.945 52.2592 177.224 52.5454 177.438 52.8839C177.649 53.2225 177.754 53.6394 177.754 54.1349C177.754 54.6919 177.613 55.212 177.329 55.6951C177.045 56.1783 176.642 56.5968 176.118 56.9507C175.595 57.3046 174.964 57.5831 174.226 57.7862C173.492 57.9894 172.676 58.0909 171.778 58.0909C171.04 58.0909 170.258 58.0232 169.433 57.8878C168.608 57.7524 167.819 57.557 167.066 57.3016ZM197.217 48.7341C197.751 48.8633 198.262 49.0403 198.749 49.2649C199.236 49.4896 199.669 49.7635 200.047 50.0866C200.425 50.4097 200.727 50.7805 200.952 51.1991C201.177 51.6145 201.29 52.0777 201.29 52.5885C201.29 53.1978 201.116 53.8149 200.767 54.4396C200.414 55.0612 199.896 55.6259 199.212 56.1337C198.529 56.6414 197.682 57.0569 196.671 57.38C195.661 57.7032 194.494 57.8647 193.17 57.8647H187.63V41.3529H193.716C194.835 41.3529 195.812 41.4545 196.644 41.6576C197.48 41.8607 198.176 42.1284 198.733 42.4608C199.292 42.7901 199.712 43.1732 199.992 43.6102C200.272 44.0441 200.412 44.4903 200.412 44.9489C200.412 45.3397 200.323 45.7136 200.145 46.0706C199.967 46.4276 199.732 46.7661 199.441 47.0861C199.147 47.4062 198.807 47.7047 198.422 47.9816C198.036 48.2586 197.635 48.5094 197.217 48.7341ZM190.935 50.2482V55.8798H193.492C194.281 55.8798 194.952 55.7921 195.504 55.6167C196.061 55.4413 196.511 55.212 196.857 54.9289C197.202 54.6458 197.453 54.3257 197.609 53.9687C197.766 53.6148 197.844 53.2532 197.844 52.8839C197.844 52.4254 197.736 52.0315 197.522 51.7022C197.311 51.3699 197.009 51.0975 196.617 50.8852C196.228 50.6698 195.762 50.5097 195.221 50.4051C194.679 50.3005 194.079 50.2482 193.421 50.2482H190.935ZM190.935 48.3186H195.275C195.835 47.9893 196.286 47.6031 196.628 47.16C196.969 46.7168 197.14 46.2245 197.14 45.6828C197.14 44.9596 196.804 44.3888 196.131 43.9703C195.462 43.5487 194.51 43.3378 193.274 43.3378H190.935V48.3186ZM212.66 56.106C212.427 56.2722 212.149 56.4691 211.826 56.6968C211.502 56.9276 211.144 57.1461 210.751 57.3523C210.355 57.5585 209.924 57.7324 209.459 57.8739C208.994 58.0186 208.503 58.0909 207.987 58.0909C207.463 58.0909 206.978 58.0094 206.531 57.8463C206.08 57.6862 205.689 57.4616 205.358 57.1723C205.024 56.883 204.762 56.5368 204.573 56.1337C204.38 55.7336 204.284 55.2889 204.284 54.7996C204.284 54.2888 204.406 53.7887 204.649 53.2994C204.896 52.8132 205.305 52.3777 205.876 51.993C206.451 51.6114 207.207 51.3022 208.145 51.0652C209.086 50.8282 210.25 50.7098 211.635 50.7098H212.605V49.7865C212.605 49.4542 212.54 49.1572 212.409 48.8956C212.275 48.631 212.087 48.4048 211.847 48.2171C211.607 48.0293 211.322 47.8862 210.991 47.7878C210.657 47.6924 210.286 47.6447 209.879 47.6447C209.559 47.6447 209.217 47.6754 208.854 47.737C208.49 47.8016 208.13 47.8909 207.774 48.0047C207.418 48.1155 207.072 48.2478 206.738 48.4017C206.4 48.5556 206.096 48.7233 205.827 48.9049L205.593 48.7941L204.976 46.9015C206.053 46.4276 207.052 46.1075 207.976 45.9413C208.895 45.7752 209.761 45.6921 210.571 45.6921C211.404 45.6921 212.147 45.7644 212.802 45.909C213.452 46.0506 214.005 46.2691 214.459 46.5645C214.91 46.863 215.254 47.24 215.49 47.6954C215.723 48.1478 215.839 48.6864 215.839 49.3111V54.8319C215.839 54.9458 215.852 55.0704 215.877 55.2058C215.899 55.3412 215.943 55.469 216.008 55.589C216.074 55.709 216.172 55.8106 216.303 55.8936C216.43 55.9767 216.601 56.0183 216.815 56.0183C216.939 56.0183 217.09 56.0029 217.268 55.9721C217.442 55.9413 217.619 55.8921 217.797 55.8244V57.1769C217.317 57.4539 216.841 57.6755 216.368 57.8416C215.892 58.0078 215.428 58.0909 214.978 58.0909C214.621 58.0909 214.314 58.034 214.056 57.9201C213.798 57.8093 213.582 57.6616 213.407 57.477C213.229 57.2923 213.08 57.0815 212.96 56.8446C212.84 56.6076 212.74 56.3614 212.66 56.106ZM212.605 54.6519V52.0392H211.766C210.842 52.0392 210.099 52.0931 209.535 52.2008C208.972 52.3115 208.536 52.4623 208.227 52.6531C207.914 52.8439 207.707 53.0655 207.605 53.3179C207.503 53.5702 207.452 53.8426 207.452 54.1349C207.452 54.4426 207.507 54.7135 207.616 54.9473C207.721 55.1781 207.865 55.3736 208.047 55.5336C208.228 55.6905 208.443 55.8106 208.69 55.8936C208.941 55.9767 209.208 56.0183 209.492 56.0183C209.702 56.0183 209.924 55.9967 210.157 55.9537C210.386 55.9136 210.628 55.8413 210.882 55.7367C211.137 55.629 211.406 55.489 211.689 55.3166C211.973 55.1443 212.278 54.9227 212.605 54.6519ZM227.771 58.6864H224.548C224.344 58.7849 224.132 58.8972 223.91 59.0234C223.688 59.1526 223.481 59.2942 223.288 59.448C223.099 59.6019 222.941 59.7712 222.814 59.9558C222.69 60.1405 222.628 60.3374 222.628 60.5467C222.628 60.7713 222.706 60.9821 222.863 61.1791C223.019 61.373 223.25 61.5437 223.555 61.6915C223.861 61.8361 224.241 61.953 224.695 62.0423C225.146 62.1285 225.664 62.1715 226.249 62.1715C226.925 62.1715 227.525 62.1146 228.049 62.0007C228.572 61.8869 229.014 61.7345 229.374 61.5437C229.734 61.3529 230.006 61.1329 230.192 60.8836C230.377 60.6375 230.47 60.379 230.47 60.1081C230.47 59.8681 230.399 59.6588 230.257 59.4804C230.115 59.3049 229.923 59.1572 229.679 59.0372C229.436 58.9172 229.15 58.8295 228.823 58.7741C228.492 58.7156 228.141 58.6864 227.771 58.6864ZM222.579 58.4602C221.965 58.2817 221.465 58.0432 221.08 57.7447C220.694 57.4493 220.502 57.0984 220.502 56.6922C220.502 56.446 220.578 56.2091 220.731 55.9813C220.887 55.7567 221.092 55.5428 221.347 55.3397C221.598 55.1366 221.883 54.9427 222.203 54.7581C222.523 54.5765 222.846 54.398 223.174 54.2226C222.625 54.0226 222.157 53.7825 221.772 53.5025C221.387 53.2255 221.07 52.9209 220.823 52.5885C220.58 52.2592 220.403 51.9099 220.294 51.5407C220.182 51.1744 220.125 50.8036 220.125 50.4282C220.125 49.705 220.307 49.0526 220.671 48.471C221.038 47.8893 221.519 47.3923 222.116 46.98C222.716 46.5645 223.399 46.246 224.166 46.0244C224.933 45.8028 225.726 45.6921 226.544 45.6921C227.158 45.6921 227.762 45.7567 228.354 45.8859C228.95 46.0121 229.452 46.1844 229.859 46.4029C230.143 46.2675 230.521 46.1537 230.993 46.0613C231.462 45.9659 231.95 45.9182 232.455 45.9182H234.718L234.145 47.857H231.282C231.337 47.9032 231.417 47.9909 231.522 48.1201C231.628 48.2525 231.73 48.4171 231.828 48.6141C231.926 48.8079 232.013 49.031 232.09 49.2834C232.166 49.5357 232.204 49.8035 232.204 50.0866C232.204 50.7205 232.028 51.3099 231.675 51.8546C231.326 52.3993 230.861 52.8716 230.279 53.2717C229.697 53.6748 229.032 53.9903 228.283 54.218C227.531 54.4488 226.76 54.5642 225.971 54.5642C225.804 54.5642 225.635 54.5581 225.464 54.5457C225.297 54.5334 225.124 54.5196 224.946 54.5042C224.804 54.5811 224.653 54.6658 224.493 54.7581C224.333 54.8535 224.188 54.955 224.057 55.0627C223.922 55.1735 223.81 55.292 223.719 55.4182C223.632 55.5474 223.588 55.6798 223.588 55.8152C223.588 56.046 223.712 56.2337 223.959 56.3783C224.21 56.5199 224.551 56.5907 224.984 56.5907H228.583C229.219 56.5907 229.834 56.6568 230.426 56.7892C231.015 56.9215 231.533 57.1123 231.98 57.3616C232.431 57.6139 232.791 57.9232 233.06 58.2894C233.333 58.6525 233.469 59.0664 233.469 59.5311C233.469 60.0512 233.293 60.5836 232.94 61.1283C232.591 61.673 232.075 62.1685 231.392 62.6147C230.708 63.0609 229.865 63.4256 228.861 63.7087C227.858 63.9887 226.704 64.1288 225.398 64.1288C224.566 64.1288 223.792 64.0672 223.075 63.9441C222.363 63.821 221.741 63.6441 221.21 63.4133C220.683 63.1855 220.271 62.9086 219.973 62.5824C219.674 62.2562 219.525 61.89 219.525 61.4837C219.525 61.1237 219.636 60.7882 219.858 60.4774C220.083 60.1697 220.354 59.8881 220.671 59.6327C220.991 59.3773 221.325 59.1526 221.674 58.9587C222.019 58.7618 222.321 58.5956 222.579 58.4602ZM223.097 50.0681C223.097 50.4497 223.174 50.8036 223.326 51.1298C223.483 51.456 223.701 51.7422 223.981 51.9884C224.261 52.2315 224.59 52.4208 224.968 52.5562C225.346 52.6916 225.76 52.7593 226.211 52.7593C226.636 52.7593 227.036 52.6978 227.411 52.5747C227.782 52.4485 228.105 52.2731 228.381 52.0484C228.658 51.8238 228.876 51.5514 229.036 51.2314C229.196 50.9113 229.276 50.5574 229.276 50.1697C229.276 49.785 229.198 49.4311 229.041 49.108C228.885 48.7848 228.667 48.5048 228.387 48.2678C228.107 48.0309 227.776 47.8447 227.394 47.7093C227.013 47.5739 226.596 47.5062 226.146 47.5062C225.72 47.5062 225.322 47.5662 224.951 47.6862C224.584 47.8062 224.262 47.977 223.986 48.1986C223.713 48.4233 223.497 48.6925 223.337 49.0064C223.177 49.3234 223.097 49.6773 223.097 50.0681ZM248.378 55.409V56.7707C247.985 57.0046 247.564 57.2046 247.113 57.3708C246.659 57.5339 246.191 57.6708 245.711 57.7816C245.235 57.8893 244.759 57.9678 244.283 58.017C243.807 58.0663 243.356 58.0909 242.93 58.0909C241.945 58.0909 241.029 57.9632 240.182 57.7078C239.335 57.4523 238.599 57.0769 237.973 56.5814C237.348 56.086 236.857 55.4751 236.501 54.7488C236.145 54.0226 235.967 53.1901 235.967 52.2515C235.967 51.2514 236.167 50.3466 236.567 49.5373C236.966 48.7248 237.501 48.0355 238.17 47.4693C238.842 46.8999 239.62 46.4614 240.504 46.1537C241.387 45.8459 242.307 45.6921 243.263 45.6921C244.063 45.6921 244.806 45.8028 245.493 46.0244C246.18 46.246 246.775 46.5753 247.277 47.0123C247.778 47.4493 248.171 47.994 248.454 48.6464C248.742 49.2988 248.885 50.0574 248.885 50.9221C248.885 51.1314 248.872 51.3545 248.847 51.5914C248.825 51.8284 248.789 52.0607 248.738 52.2885H239.309C239.309 52.8947 239.437 53.4317 239.691 53.8995C239.942 54.3642 240.298 54.7519 240.76 55.0627C241.222 55.3766 241.776 55.6136 242.423 55.7736C243.074 55.9367 243.788 56.0183 244.566 56.0183C244.792 56.0183 245.052 56.0106 245.346 55.9952C245.644 55.9798 245.962 55.949 246.3 55.9029C246.639 55.8598 246.984 55.7982 247.337 55.7182C247.693 55.6382 248.04 55.5351 248.378 55.409ZM239.309 50.9544H245.886C245.886 50.4066 245.804 49.9266 245.641 49.5142C245.477 49.1018 245.253 48.7556 244.97 48.4756C244.686 48.1986 244.355 47.9909 243.977 47.8524C243.599 47.7139 243.192 47.6447 242.756 47.6447C242.269 47.6447 241.816 47.7262 241.398 47.8893C240.984 48.0555 240.62 48.2878 240.307 48.5864C239.998 48.8818 239.755 49.2326 239.577 49.6388C239.399 50.045 239.309 50.4836 239.309 50.9544ZM252.572 57.8647V39.8111H255.789V57.8647H252.572Z" fill="#FCFCFC"/>
</g>
</g>
</g>
</g>
<g clip-path="url(#clip7_337_1113)">
<g clip-path="url(#clip8_337_1113)">
<path d="M149.421 17.0745C149.624 16.446 149.729 15.7778 149.736 15.0827C149.837 14.4494 150.416 9.93989 147.107 5.94628C143.765 1.91447 137.723 -0.126898 129.153 -0.128784C129.031 -0.128784 128.909 -0.128784 128.789 -0.127369H128.666L128.53 -0.128784C128.456 -0.128784 128.38 -0.128784 128.304 -0.128784C126.619 -0.128784 124.97 -0.0335298 123.41 0.156979C117.457 0.788865 113.061 2.49307 110.343 5.21961C109.035 6.52629 108.086 8.09799 107.523 9.87482C107.334 10.3949 107.189 10.9344 107.082 11.4852L107.021 11.8242C106.998 11.9728 106.976 12.1213 106.956 12.275L106.955 12.2911C106.569 15.1728 106.776 16.4908 106.892 16.9529C106.22 18.0158 106.737 19.1687 106.881 19.4432C106.881 19.4502 106.882 19.4592 106.886 19.4663C106.889 19.8798 106.898 20.4971 106.947 21.1252C107.05 22.5064 107.298 23.5646 107.706 24.3606C109.21 27.2875 111.931 29.6976 115.578 31.3387C119.14 32.9443 123.542 33.7908 128.302 33.7908C133.768 33.7908 138.675 32.8283 142.493 31.001C146.428 29.1195 148.858 26.4944 149.516 23.4141C149.58 23.1298 149.628 22.4559 149.666 21.3558C149.677 21.1045 149.685 20.8494 149.692 20.5971C150.404 19.5427 149.941 17.9549 149.421 17.0745ZM121.586 6.08916C121.705 5.868 121.977 5.77888 122.199 5.89535C122.419 6.01183 122.509 6.28297 122.395 6.50602C122.384 6.53195 121.701 7.91125 122.416 9.07411C122.75 9.62018 123.347 10.0517 124.183 10.3629C123.629 10.0592 123.307 9.69421 123.307 9.29999C123.307 8.25313 125.593 7.40386 128.409 7.40386C131.23 7.40386 133.515 8.2536 133.515 9.30329C133.515 9.6961 133.192 10.0597 132.641 10.3615C133.479 10.0516 134.074 9.61688 134.409 9.06751C135.129 7.89334 134.436 6.52205 134.428 6.50885C134.315 6.2858 134.399 6.01135 134.621 5.89677C134.844 5.78218 135.117 5.86753 135.235 6.09058C135.27 6.1665 136.161 7.93389 135.186 9.54237C134.247 11.0801 131.968 11.8587 128.409 11.8587C124.853 11.8587 122.572 11.0787 121.637 9.54096C120.658 7.93389 121.547 6.1632 121.586 6.08916ZM141.799 29.543C138.192 31.2646 133.527 32.1757 128.301 32.1724C119.058 32.1724 111.896 28.9776 109.142 23.6207C109.086 23.5085 109.031 23.3854 108.979 23.2477C109.932 24.0008 111.055 24.693 112.333 25.3188C116.64 27.42 122.348 28.5782 128.404 28.5782C134.463 28.5782 140.168 27.42 144.471 25.3207C145.791 24.676 146.943 23.9602 147.913 23.185C147.326 25.7097 145.215 27.9086 141.799 29.543ZM113.222 23.1109C114.139 23.2482 115.107 23.392 115.568 23.5297C115.646 23.5669 115.739 23.6089 115.846 23.6575C116.448 24.0805 119.969 25.928 121.592 26.0318C121.721 26.0511 122.409 26.1605 123.268 26.1605C123.788 26.1605 124.264 26.1223 124.694 26.0445C124.699 26.0431 124.706 26.0431 124.71 26.0431C124.782 26.0318 124.854 26.0138 124.923 25.9973C124.923 25.9973 128.097 25.422 129.583 25.7215C130.736 25.9507 134.059 26.1685 136.958 25.3207C137.749 25.1589 138.443 24.9326 138.847 24.6194C139.522 24.0866 141.013 23.3118 142.526 22.6714C144.364 21.9608 146.098 21.6218 147.264 21.6185C146.329 22.4328 145.158 23.1887 143.766 23.8673C139.677 25.8634 134.221 26.9621 128.404 26.9607C122.59 26.9607 117.134 25.8606 113.044 23.8645C112.543 23.6216 112.065 23.3637 111.62 23.0987C112.056 23.0869 112.631 23.085 113.222 23.1109ZM148.1 16.0249C147.266 20.6829 140.404 23.25 128.762 23.2482C127.92 23.2482 120.346 23.1986 114.431 21.5166L113.361 21.1889C112.928 21.045 112.515 20.8918 112.128 20.7366C111.472 20.3957 110.812 19.9741 110.183 19.496C108.892 18.4006 108.593 17.1651 108.53 16.5176L108.499 15.0511V14.9686C108.499 14.4112 108.528 12.7589 108.564 12.4679C108.706 11.2499 109.082 10.0983 109.678 9.03545C109.652 9.23916 109.638 9.4457 109.638 9.65271C109.638 12.1982 111.628 14.5729 115.237 16.3399C118.767 18.0686 123.443 19.0216 128.405 19.0216C133.37 19.0216 138.049 18.0714 141.579 16.3432C145.189 14.5729 147.178 12.2015 147.178 9.65413C147.178 9.43108 147.162 9.21652 147.132 8.99678C147.676 10.0517 147.997 11.1919 148.088 12.3981C148.1 12.5811 148.111 14.5319 148.111 14.97C148.111 15.1812 148.11 15.566 148.1 16.0249Z" fill="#E2725E"/>
</g>
</g>
<path d="M255.792 31.0303H158.883V33.2437H255.792V31.0303Z" fill="#E2725E"/>
<path d="M97.1171 31.0303H0.207642V33.2437H97.1171V31.0303Z" fill="#E2725E"/>
<path d="M255.792 26.6036H158.883V28.817H255.792V26.6036Z" fill="#E2725E"/>
<path d="M97.1171 26.6036H0.207642V28.817H97.1171V26.6036Z" fill="#E2725E"/>
</g>
</g>
</g>
<defs>
<clipPath id="clip0_337_1113">
<rect width="256" height="64" fill="white"/>
</clipPath>
<clipPath id="clip1_337_1113">
<rect width="255.585" height="64.2575" fill="white" transform="translate(0.207642 -0.128784)"/>
</clipPath>
<clipPath id="clip2_337_1113">
<rect width="255.585" height="64.2575" fill="white" transform="translate(0.207642 -0.128784)"/>
</clipPath>
<clipPath id="clip3_337_1113">
<rect width="255.585" height="24.5438" fill="white" transform="translate(0.207642 39.585)"/>
</clipPath>
<clipPath id="clip4_337_1113">
<rect width="255.585" height="24.5438" fill="white" transform="translate(0.207642 39.585)"/>
</clipPath>
<clipPath id="clip5_337_1113">
<rect width="255.585" height="24.5438" fill="white" transform="translate(0.207642 39.585)"/>
</clipPath>
<clipPath id="clip6_337_1113">
<rect width="255.585" height="24.5438" fill="white" transform="translate(0.207642 39.585)"/>
</clipPath>
<clipPath id="clip7_337_1113">
<rect width="52.2471" height="33.9195" fill="white" transform="translate(102.182 -0.128784)"/>
</clipPath>
<clipPath id="clip8_337_1113">
<rect width="43.5013" height="33.9195" fill="white" transform="translate(106.555 -0.128784)"/>
</clipPath>
</defs>
</svg>
