<?xml version="1.0" encoding="utf-8"?>
<!-- Generator: Adobe Illustrator 24.3.0, SVG Export Plug-In . SVG Version: 6.00 Build 0)  -->
<svg version="1.1" id="圖層_1" xmlns="http://www.w3.org/2000/svg" xmlns:xlink="http://www.w3.org/1999/xlink" x="0px" y="0px"
	 viewBox="0 0 220 180" style="enable-background:new 0 0 220 180;" xml:space="preserve">
<style type="text/css">
	.st0{fill:#CE3F25;}
</style>
<path class="st0" d="M214.53,91.21c1.01-3.11,1.53-6.42,1.56-9.86c0.5-3.14,3.37-25.46-13.01-45.23
	c-16.55-19.96-46.46-30.07-88.88-30.07c-0.6,0-1.2,0-1.8,0.01h-0.61l-0.67-0.01c-0.37,0-0.74,0-1.12,0
	c-8.34,0-16.51,0.47-24.23,1.41c-29.47,3.13-51.24,11.56-64.69,25.06C14.6,38.99,9.9,46.77,7.11,55.56
	c-0.94,2.57-1.65,5.25-2.18,7.97l-0.3,1.68c-0.11,0.74-0.22,1.47-0.32,2.23L4.3,67.52C2.39,81.79,3.41,88.32,3.99,90.6
	c-3.32,5.26-0.77,10.97-0.05,12.33c0,0.03,0.01,0.08,0.02,0.11c0.01,2.05,0.06,5.1,0.3,8.21c0.51,6.84,1.74,12.08,3.76,16.02
	c7.45,14.49,20.92,26.42,38.97,34.55c17.64,7.95,39.43,12.14,62.99,12.14c27.06,0,51.35-4.76,70.25-13.81
	c19.48-9.31,31.51-22.31,34.77-37.56c0.32-1.41,0.55-4.74,0.74-10.19c0.06-1.24,0.1-2.51,0.13-3.76
	C219.4,103.42,217.11,95.56,214.53,91.21z M76.73,36.82c0.59-1.09,1.93-1.54,3.03-0.96c1.09,0.58,1.54,1.92,0.97,3.02
	c-0.06,0.13-3.44,6.96,0.1,12.71c1.65,2.7,4.61,4.84,8.75,6.38c-2.74-1.5-4.34-3.31-4.34-5.26c0-5.18,11.32-9.39,25.26-9.39
	c13.97,0,25.27,4.21,25.27,9.4c0,1.94-1.6,3.74-4.32,5.24c4.15-1.53,7.09-3.69,8.75-6.41c3.56-5.81,0.14-12.6,0.1-12.67
	c-0.56-1.1-0.15-2.46,0.96-3.03c1.1-0.57,2.45-0.14,3.04,0.96c0.18,0.38,4.59,9.13-0.24,17.09c-4.65,7.61-15.93,11.47-33.55,11.47
	c-17.6,0-28.9-3.86-33.52-11.47C72.14,45.95,76.54,37.19,76.73,36.82z M176.79,152.93c-17.85,8.52-40.95,13.03-66.82,13.02
	c-45.75,0-81.21-15.82-94.84-42.34c-0.28-0.56-0.55-1.16-0.81-1.85c4.71,3.73,10.28,7.15,16.6,10.25
	c21.32,10.4,49.58,16.14,79.56,16.14c29.99,0,58.24-5.73,79.54-16.13c6.53-3.19,12.24-6.74,17.04-10.57
	C204.16,133.95,193.71,144.84,176.79,152.93z M35.32,121.09c4.54,0.68,9.33,1.39,11.62,2.07c0.38,0.18,0.85,0.39,1.37,0.63
	c2.98,2.09,20.41,11.24,28.45,11.75c0.64,0.1,4.04,0.64,8.3,0.64c2.57,0,4.93-0.19,7.06-0.58c0.02-0.01,0.06-0.01,0.08-0.01
	c0.35-0.06,0.71-0.14,1.05-0.23c0,0,15.71-2.85,23.07-1.37c5.71,1.14,22.16,2.21,36.51-1.98c3.92-0.8,7.35-1.92,9.35-3.47
	c3.34-2.64,10.72-6.47,18.21-9.64c9.1-3.52,17.68-5.2,23.46-5.21c-4.63,4.03-10.42,7.77-17.32,11.13
	c-20.24,9.88-47.25,15.32-76.05,15.31c-28.78,0-55.79-5.45-76.04-15.33c-2.48-1.2-4.84-2.48-7.05-3.79
	C29.56,120.97,32.4,120.96,35.32,121.09z M207.99,86.01c-4.13,23.06-38.1,35.77-95.73,35.76c-4.17,0-41.66-0.24-70.95-8.57
	l-5.3-1.62c-2.14-0.71-4.19-1.47-6.1-2.24c-3.24-1.69-6.51-3.77-9.63-6.14c-6.39-5.42-7.87-11.54-8.18-14.74l-0.15-7.26v-0.41
	c0-2.76,0.14-10.94,0.32-12.38c0.7-6.03,2.57-11.73,5.51-16.99c-0.13,1.01-0.2,2.03-0.2,3.06c0,12.6,9.85,24.36,27.72,33.1
	c17.48,8.56,40.63,13.28,65.19,13.28c24.58,0,47.74-4.7,65.22-13.26c17.87-8.76,27.71-20.5,27.71-33.11c0-1.1-0.08-2.17-0.23-3.25
	c2.69,5.22,4.29,10.87,4.73,16.84c0.06,0.91,0.12,10.56,0.12,12.73C208.04,81.83,208.04,83.74,207.99,86.01z"/>
</svg>
