<svg width="24" height="24" viewBox="0 0 24 24" fill="none" xmlns="http://www.w3.org/2000/svg">
<rect width="24" height="24" rx="12" fill="#FCFCFC"/>
<path d="M10.0027 12.0307C10.0027 10.9252 10.8984 10.0288 12.0036 10.0288C13.1088 10.0288 14.005 10.9252 14.005 12.0307C14.005 13.1362 13.1088 14.0327 12.0036 14.0327C10.8984 14.0327 10.0027 13.1362 10.0027 12.0307ZM8.92082 12.0307C8.92082 13.7338 10.301 15.1144 12.0036 15.1144C13.7062 15.1144 15.0864 13.7338 15.0864 12.0307C15.0864 10.3276 13.7062 8.94706 12.0036 8.94706C10.301 8.94706 8.92082 10.3276 8.92082 12.0307ZM14.488 8.82479C14.4879 8.96732 14.5301 9.10666 14.6092 9.2252C14.6884 9.34374 14.8008 9.43616 14.9325 9.49075C15.0641 9.54535 15.2089 9.55968 15.3487 9.53193C15.4884 9.50418 15.6168 9.43559 15.7176 9.33485C15.8184 9.23411 15.8871 9.10573 15.915 8.96595C15.9428 8.82617 15.9286 8.68127 15.8741 8.54957C15.8196 8.41786 15.7274 8.30528 15.6089 8.22605C15.4905 8.14681 15.3512 8.10449 15.2087 8.10444H15.2084C15.0174 8.10453 14.8343 8.18044 14.6992 8.3155C14.5641 8.45057 14.4882 8.63374 14.488 8.82479ZM9.57815 16.9189C8.99282 16.8923 8.67468 16.7947 8.46325 16.7123C8.18296 16.6032 7.98297 16.4732 7.7727 16.2631C7.56243 16.0531 7.43227 15.8532 7.32363 15.5729C7.24121 15.3615 7.14371 15.0431 7.1171 14.4576C7.088 13.8246 7.08219 13.6345 7.08219 12.0308C7.08219 10.4271 7.08848 10.2374 7.1171 9.6039C7.14376 9.0184 7.24198 8.70069 7.32363 8.48868C7.43275 8.20831 7.56271 8.00826 7.7727 7.79792C7.98268 7.58759 8.18248 7.4574 8.46325 7.34873C8.67458 7.26628 8.99282 7.16876 9.57815 7.14214C10.211 7.11303 10.4011 7.10722 12.0036 7.10722C13.6061 7.10722 13.7964 7.11351 14.4298 7.14214C15.0151 7.16881 15.3327 7.26705 15.5447 7.34873C15.825 7.4574 16.025 7.58788 16.2352 7.79792C16.4455 8.00797 16.5752 8.20831 16.6843 8.48868C16.7667 8.70007 16.8642 9.0184 16.8908 9.6039C16.9199 10.2374 16.9257 10.4271 16.9257 12.0308C16.9257 13.6345 16.9199 13.8241 16.8908 14.4576C16.8642 15.0431 16.7662 15.3614 16.6843 15.5729C16.5752 15.8532 16.4452 16.0533 16.2352 16.2631C16.0252 16.473 15.825 16.6032 15.5447 16.7123C15.3333 16.7948 15.0151 16.8923 14.4298 16.9189C13.7969 16.948 13.6068 16.9538 12.0036 16.9538C10.4004 16.9538 10.2108 16.948 9.57815 16.9189ZM9.52844 6.06176C8.88932 6.09087 8.45259 6.19224 8.07119 6.34069C7.67621 6.494 7.34183 6.69967 7.00769 7.03337C6.67356 7.36708 6.46847 7.70208 6.31521 8.09718C6.1668 8.47893 6.06546 8.91554 6.03636 9.55485C6.00677 10.1952 6 10.3999 6 12.0307C6 13.6616 6.00677 13.8663 6.03636 14.5066C6.06546 15.146 6.1668 15.5825 6.31521 15.9643C6.46847 16.3591 6.6736 16.6945 7.00769 17.0281C7.34178 17.3616 7.67621 17.567 8.07119 17.7208C8.45331 17.8692 8.88932 17.9706 9.52844 17.9997C10.1689 18.0288 10.3732 18.0361 12.0036 18.0361C13.634 18.0361 13.8386 18.0293 14.4788 17.9997C15.1179 17.9706 15.5544 17.8692 15.936 17.7208C16.3308 17.567 16.6654 17.3618 16.9995 17.0281C17.3336 16.6944 17.5383 16.3591 17.692 15.9643C17.8404 15.5825 17.9422 15.1459 17.9708 14.5066C17.9999 13.8658 18.0067 13.6616 18.0067 12.0307C18.0067 10.3999 17.9999 10.1952 17.9708 9.55485C17.9417 8.91549 17.8404 8.47869 17.692 8.09718C17.5383 7.70232 17.3331 7.36761 16.9995 7.03337C16.6659 6.69914 16.3308 6.494 15.9365 6.34069C15.5544 6.19224 15.1179 6.09039 14.4792 6.06176C13.8391 6.03265 13.6345 6.02539 12.0041 6.02539C10.3737 6.02539 10.1689 6.03216 9.52844 6.06176Z" fill="#CE3F25"/>
</svg>
