<svg width="72" height="48" viewBox="0 0 72 48" fill="none" xmlns="http://www.w3.org/2000/svg">
<rect width="72" height="48" fill="#8D2B19"/>
<g clip-path="url(#clip0_1_87)">
<path d="M36 14C30.48 14 26 18.48 26 24C26 29.52 30.48 34 36 34C41.52 34 46 29.52 46 24C46 18.48 41.52 14 36 14ZM37 31H35V29H37V31ZM39.07 23.25L38.17 24.17C37.67 24.68 37.31 25.14 37.13 25.86C37.05 26.18 37 26.54 37 27H35V26.5C35 26.04 35.08 25.6 35.22 25.19C35.42 24.61 35.75 24.09 36.17 23.67L37.41 22.41C37.87 21.97 38.09 21.31 37.96 20.61C37.83 19.89 37.27 19.28 36.57 19.08C35.46 18.77 34.43 19.4 34.1 20.35C33.98 20.72 33.67 21 33.28 21H32.98C32.4 21 32 20.44 32.16 19.88C32.59 18.41 33.84 17.29 35.39 17.05C36.91 16.81 38.36 17.6 39.26 18.85C40.44 20.48 40.09 22.23 39.07 23.25Z" fill="#FCFCFC"/>
</g>
<defs>
<clipPath id="clip0_1_87">
<rect width="24" height="24" fill="white" transform="translate(24 12)"/>
</clipPath>
</defs>
</svg>
