<svg width="90" height="64" viewBox="0 0 90 64" fill="none" xmlns="http://www.w3.org/2000/svg">
<g clip-path="url(#clip0_1_98)">
<path d="M40.2665 43.263C40.3397 45.9748 39.8672 48.6736 38.8773 51.1982C37.8873 53.7229 36.4001 56.0216 34.5045 57.9571C32.6089 59.8927 30.3438 61.4253 27.8444 62.4635C25.345 63.5018 22.6626 64.0243 19.9574 64C8.73149 63.8997 -0.117444 54.4562 0.011898 43.1993C0.402364 8.14408 35.3857 0 35.3857 0L36.9329 4.97014C36.9329 4.97014 22.0098 10.4052 16.2431 24.0015C19.1161 23.434 22.078 23.5015 24.9223 24.1994C27.7666 24.8973 30.4249 26.2088 32.7119 28.0425C34.999 29.8762 36.8597 32.1879 38.1644 34.8167C39.4692 37.4454 40.1865 40.3278 40.2665 43.263Z" fill="#FCFCFC"/>
<path d="M89.9926 43.263C90.0658 45.9748 89.5933 48.6736 88.6033 51.1982C87.6134 53.7229 86.1262 56.0216 84.2306 57.9571C82.335 59.8927 80.0699 61.4253 77.5705 62.4635C75.0711 63.5018 72.3887 64.0243 69.6835 64C58.4576 63.8997 49.6086 54.4562 49.738 43.1993C50.1382 8.14408 85.1166 0 85.1166 0L86.6639 4.97014C86.6639 4.97014 71.7481 10.4052 65.9789 24.0015C68.8512 23.4356 71.812 23.5043 74.6551 24.203C77.4982 24.9016 80.1553 26.2134 82.4412 28.0469C84.7271 29.8804 86.5869 32.1916 87.891 34.8195C89.1952 37.4474 89.9124 40.3288 89.9926 43.263Z" fill="#FCFCFC"/>
</g>
<defs>
<clipPath id="clip0_1_98">
<rect width="90" height="64" fill="white"/>
</clipPath>
</defs>
</svg>
